<mxfile host="Electron" modified="2023-06-27T10:55:36.326Z" agent="Mozilla/5.0 (Windows NT 10.0; Win64; x64) AppleWebKit/537.36 (KHTML, like Gecko) draw.io/21.5.0 Chrome/112.0.5615.204 Electron/24.5.1 Safari/537.36" etag="G4xPU8QXaHcQwahPz9Gb" version="21.5.0" type="device">
  <diagram name="Page-1" id="WebPQZTpjn-xhN_tPCsS">
    <mxGraphModel dx="1714" dy="1616" grid="1" gridSize="10" guides="1" tooltips="1" connect="1" arrows="1" fold="1" page="1" pageScale="1" pageWidth="850" pageHeight="1100" math="0" shadow="0">
      <root>
        <mxCell id="0" />
        <mxCell id="1" parent="0" />
        <mxCell id="e3MKClEmsMuoy2-H0YjM-1" value="Customer" style="whiteSpace=wrap;html=1;align=center;" vertex="1" parent="1">
          <mxGeometry x="40" y="40" width="120" height="40" as="geometry" />
        </mxCell>
        <mxCell id="e3MKClEmsMuoy2-H0YjM-4" value="1" style="endArrow=none;html=1;rounded=0;" edge="1" parent="1" target="e3MKClEmsMuoy2-H0YjM-5">
          <mxGeometry relative="1" as="geometry">
            <mxPoint x="160" y="59.5" as="sourcePoint" />
            <mxPoint x="240" y="60" as="targetPoint" />
          </mxGeometry>
        </mxCell>
        <mxCell id="e3MKClEmsMuoy2-H0YjM-5" value="Rent" style="shape=rhombus;perimeter=rhombusPerimeter;whiteSpace=wrap;html=1;align=center;" vertex="1" parent="1">
          <mxGeometry x="240" y="30" width="120" height="60" as="geometry" />
        </mxCell>
        <mxCell id="e3MKClEmsMuoy2-H0YjM-6" value="m" style="endArrow=none;html=1;rounded=0;" edge="1" parent="1" target="e3MKClEmsMuoy2-H0YjM-7">
          <mxGeometry relative="1" as="geometry">
            <mxPoint x="360" y="59.5" as="sourcePoint" />
            <mxPoint x="440" y="60" as="targetPoint" />
          </mxGeometry>
        </mxCell>
        <mxCell id="e3MKClEmsMuoy2-H0YjM-7" value="Tour Equipment" style="whiteSpace=wrap;html=1;align=center;" vertex="1" parent="1">
          <mxGeometry x="440" y="40" width="100" height="40" as="geometry" />
        </mxCell>
        <mxCell id="e3MKClEmsMuoy2-H0YjM-8" value="" style="endArrow=none;html=1;rounded=0;entryX=1;entryY=0;entryDx=0;entryDy=0;exitX=0.5;exitY=1;exitDx=0;exitDy=0;" edge="1" parent="1" source="e3MKClEmsMuoy2-H0YjM-10" target="e3MKClEmsMuoy2-H0YjM-7">
          <mxGeometry relative="1" as="geometry">
            <mxPoint x="580" y="-1" as="sourcePoint" />
            <mxPoint x="590" y="50" as="targetPoint" />
          </mxGeometry>
        </mxCell>
        <mxCell id="e3MKClEmsMuoy2-H0YjM-10" value="Item_Code" style="ellipse;whiteSpace=wrap;html=1;align=center;fontStyle=4;" vertex="1" parent="1">
          <mxGeometry x="520" y="-40" width="100" height="40" as="geometry" />
        </mxCell>
        <mxCell id="e3MKClEmsMuoy2-H0YjM-12" value="" style="endArrow=none;html=1;rounded=0;entryX=0;entryY=1;entryDx=0;entryDy=0;" edge="1" parent="1" target="e3MKClEmsMuoy2-H0YjM-1">
          <mxGeometry relative="1" as="geometry">
            <mxPoint y="120" as="sourcePoint" />
            <mxPoint x="120" y="110" as="targetPoint" />
          </mxGeometry>
        </mxCell>
        <mxCell id="e3MKClEmsMuoy2-H0YjM-13" value="" style="endArrow=none;html=1;rounded=0;" edge="1" parent="1">
          <mxGeometry relative="1" as="geometry">
            <mxPoint x="-40" y="60" as="sourcePoint" />
            <mxPoint x="40" y="59.5" as="targetPoint" />
          </mxGeometry>
        </mxCell>
        <mxCell id="e3MKClEmsMuoy2-H0YjM-14" value="Customer_Name" style="ellipse;whiteSpace=wrap;html=1;align=center;" vertex="1" parent="1">
          <mxGeometry x="-140" y="40" width="100" height="40" as="geometry" />
        </mxCell>
        <mxCell id="e3MKClEmsMuoy2-H0YjM-15" value="Address" style="ellipse;whiteSpace=wrap;html=1;align=center;" vertex="1" parent="1">
          <mxGeometry x="-59" y="120" width="100" height="40" as="geometry" />
        </mxCell>
        <mxCell id="e3MKClEmsMuoy2-H0YjM-16" value="" style="endArrow=none;html=1;rounded=0;entryX=1;entryY=1;entryDx=0;entryDy=0;" edge="1" parent="1">
          <mxGeometry relative="1" as="geometry">
            <mxPoint x="201" y="120" as="sourcePoint" />
            <mxPoint x="161" y="80" as="targetPoint" />
          </mxGeometry>
        </mxCell>
        <mxCell id="e3MKClEmsMuoy2-H0YjM-18" value="Telephone_Number" style="ellipse;whiteSpace=wrap;html=1;align=center;" vertex="1" parent="1">
          <mxGeometry x="160" y="120" width="120" height="40" as="geometry" />
        </mxCell>
        <mxCell id="e3MKClEmsMuoy2-H0YjM-19" value="" style="endArrow=none;html=1;rounded=0;entryX=0.5;entryY=1;entryDx=0;entryDy=0;exitX=0.675;exitY=0.05;exitDx=0;exitDy=0;exitPerimeter=0;" edge="1" parent="1" source="e3MKClEmsMuoy2-H0YjM-1" target="e3MKClEmsMuoy2-H0YjM-20">
          <mxGeometry relative="1" as="geometry">
            <mxPoint x="121" y="33" as="sourcePoint" />
            <mxPoint x="161" y="-7" as="targetPoint" />
          </mxGeometry>
        </mxCell>
        <mxCell id="e3MKClEmsMuoy2-H0YjM-20" value="No_of_Guest" style="ellipse;whiteSpace=wrap;html=1;align=center;" vertex="1" parent="1">
          <mxGeometry x="75" y="-40" width="100" height="40" as="geometry" />
        </mxCell>
        <mxCell id="e3MKClEmsMuoy2-H0YjM-21" value="Description" style="ellipse;whiteSpace=wrap;html=1;align=center;" vertex="1" parent="1">
          <mxGeometry x="540" y="120" width="100" height="40" as="geometry" />
        </mxCell>
        <mxCell id="e3MKClEmsMuoy2-H0YjM-22" value="" style="endArrow=none;html=1;rounded=0;entryX=1;entryY=1;entryDx=0;entryDy=0;" edge="1" parent="1">
          <mxGeometry relative="1" as="geometry">
            <mxPoint x="580" y="120" as="sourcePoint" />
            <mxPoint x="540" y="80" as="targetPoint" />
          </mxGeometry>
        </mxCell>
        <mxCell id="e3MKClEmsMuoy2-H0YjM-23" value="" style="endArrow=none;html=1;rounded=0;entryX=0;entryY=0;entryDx=0;entryDy=0;" edge="1" parent="1" target="e3MKClEmsMuoy2-H0YjM-7">
          <mxGeometry relative="1" as="geometry">
            <mxPoint x="400" as="sourcePoint" />
            <mxPoint x="450" y="20" as="targetPoint" />
          </mxGeometry>
        </mxCell>
        <mxCell id="e3MKClEmsMuoy2-H0YjM-24" value="Rent_rate" style="ellipse;whiteSpace=wrap;html=1;align=center;" vertex="1" parent="1">
          <mxGeometry x="350" y="-40" width="100" height="40" as="geometry" />
        </mxCell>
        <mxCell id="e3MKClEmsMuoy2-H0YjM-25" value="Qty_in_Hand" style="ellipse;whiteSpace=wrap;html=1;align=center;" vertex="1" parent="1">
          <mxGeometry x="360" y="120" width="100" height="40" as="geometry" />
        </mxCell>
        <mxCell id="e3MKClEmsMuoy2-H0YjM-26" value="" style="endArrow=none;html=1;rounded=0;entryX=0;entryY=1;entryDx=0;entryDy=0;" edge="1" parent="1" target="e3MKClEmsMuoy2-H0YjM-7">
          <mxGeometry relative="1" as="geometry">
            <mxPoint x="400" y="120" as="sourcePoint" />
            <mxPoint x="360" y="80" as="targetPoint" />
          </mxGeometry>
        </mxCell>
        <mxCell id="e3MKClEmsMuoy2-H0YjM-27" value="m" style="endArrow=none;html=1;rounded=0;entryX=0.5;entryY=1;entryDx=0;entryDy=0;" edge="1" parent="1" target="e3MKClEmsMuoy2-H0YjM-1">
          <mxGeometry relative="1" as="geometry">
            <mxPoint x="100" y="190" as="sourcePoint" />
            <mxPoint x="170" y="160" as="targetPoint" />
          </mxGeometry>
        </mxCell>
        <mxCell id="e3MKClEmsMuoy2-H0YjM-28" value="Book" style="shape=rhombus;perimeter=rhombusPerimeter;whiteSpace=wrap;html=1;align=center;" vertex="1" parent="1">
          <mxGeometry x="41" y="190" width="120" height="60" as="geometry" />
        </mxCell>
        <mxCell id="e3MKClEmsMuoy2-H0YjM-29" value="n" style="endArrow=none;html=1;rounded=0;entryX=0.5;entryY=1;entryDx=0;entryDy=0;" edge="1" parent="1">
          <mxGeometry relative="1" as="geometry">
            <mxPoint x="100.5" y="360" as="sourcePoint" />
            <mxPoint x="100.5" y="250" as="targetPoint" />
          </mxGeometry>
        </mxCell>
        <mxCell id="e3MKClEmsMuoy2-H0YjM-30" value="Tour" style="whiteSpace=wrap;html=1;align=center;" vertex="1" parent="1">
          <mxGeometry x="41" y="360" width="120" height="40" as="geometry" />
        </mxCell>
        <mxCell id="e3MKClEmsMuoy2-H0YjM-31" value="1" style="endArrow=none;html=1;rounded=0;entryX=0.5;entryY=1;entryDx=0;entryDy=0;" edge="1" parent="1">
          <mxGeometry relative="1" as="geometry">
            <mxPoint x="100.5" y="510" as="sourcePoint" />
            <mxPoint x="100.5" y="400" as="targetPoint" />
          </mxGeometry>
        </mxCell>
        <mxCell id="e3MKClEmsMuoy2-H0YjM-32" value="Assigned by" style="shape=rhombus;perimeter=rhombusPerimeter;whiteSpace=wrap;html=1;align=center;" vertex="1" parent="1">
          <mxGeometry x="41" y="510" width="120" height="60" as="geometry" />
        </mxCell>
        <mxCell id="e3MKClEmsMuoy2-H0YjM-33" value="1" style="endArrow=none;html=1;rounded=0;entryX=0.5;entryY=1;entryDx=0;entryDy=0;" edge="1" parent="1">
          <mxGeometry relative="1" as="geometry">
            <mxPoint x="100.5" y="680" as="sourcePoint" />
            <mxPoint x="100.5" y="570" as="targetPoint" />
          </mxGeometry>
        </mxCell>
        <mxCell id="e3MKClEmsMuoy2-H0YjM-34" value="Guide" style="whiteSpace=wrap;html=1;align=center;" vertex="1" parent="1">
          <mxGeometry x="41" y="680" width="120" height="40" as="geometry" />
        </mxCell>
        <mxCell id="e3MKClEmsMuoy2-H0YjM-43" value="Description" style="ellipse;whiteSpace=wrap;html=1;align=center;" vertex="1" parent="1">
          <mxGeometry x="540" y="120" width="100" height="40" as="geometry" />
        </mxCell>
        <mxCell id="e3MKClEmsMuoy2-H0YjM-44" value="" style="endArrow=none;html=1;rounded=0;entryX=1;entryY=1;entryDx=0;entryDy=0;" edge="1" parent="1">
          <mxGeometry relative="1" as="geometry">
            <mxPoint x="580" y="120" as="sourcePoint" />
            <mxPoint x="540" y="80" as="targetPoint" />
          </mxGeometry>
        </mxCell>
        <mxCell id="e3MKClEmsMuoy2-H0YjM-45" value="Qty_in_Hand" style="ellipse;whiteSpace=wrap;html=1;align=center;" vertex="1" parent="1">
          <mxGeometry x="360" y="120" width="100" height="40" as="geometry" />
        </mxCell>
        <mxCell id="e3MKClEmsMuoy2-H0YjM-46" value="" style="endArrow=none;html=1;rounded=0;entryX=0;entryY=1;entryDx=0;entryDy=0;" edge="1" parent="1">
          <mxGeometry relative="1" as="geometry">
            <mxPoint x="400" y="120" as="sourcePoint" />
            <mxPoint x="440" y="80" as="targetPoint" />
          </mxGeometry>
        </mxCell>
        <mxCell id="e3MKClEmsMuoy2-H0YjM-47" value="Rent_rate" style="ellipse;whiteSpace=wrap;html=1;align=center;" vertex="1" parent="1">
          <mxGeometry x="350" y="-40" width="100" height="40" as="geometry" />
        </mxCell>
        <mxCell id="e3MKClEmsMuoy2-H0YjM-48" value="" style="endArrow=none;html=1;rounded=0;entryX=0;entryY=0;entryDx=0;entryDy=0;" edge="1" parent="1">
          <mxGeometry relative="1" as="geometry">
            <mxPoint x="400" as="sourcePoint" />
            <mxPoint x="440" y="40" as="targetPoint" />
          </mxGeometry>
        </mxCell>
        <mxCell id="e3MKClEmsMuoy2-H0YjM-49" value="Item_Code" style="ellipse;whiteSpace=wrap;html=1;align=center;fontStyle=4;" vertex="1" parent="1">
          <mxGeometry x="520" y="-40" width="100" height="40" as="geometry" />
        </mxCell>
        <mxCell id="e3MKClEmsMuoy2-H0YjM-50" value="" style="endArrow=none;html=1;rounded=0;entryX=1;entryY=0;entryDx=0;entryDy=0;exitX=0.5;exitY=1;exitDx=0;exitDy=0;" edge="1" parent="1">
          <mxGeometry relative="1" as="geometry">
            <mxPoint x="183" y="319" as="sourcePoint" />
            <mxPoint x="153" y="359" as="targetPoint" />
          </mxGeometry>
        </mxCell>
        <mxCell id="e3MKClEmsMuoy2-H0YjM-51" value="Tour_Locaton" style="ellipse;whiteSpace=wrap;html=1;align=center;" vertex="1" parent="1">
          <mxGeometry x="153" y="439" width="100" height="40" as="geometry" />
        </mxCell>
        <mxCell id="e3MKClEmsMuoy2-H0YjM-52" value="" style="endArrow=none;html=1;rounded=0;entryX=1;entryY=1;entryDx=0;entryDy=0;" edge="1" parent="1">
          <mxGeometry relative="1" as="geometry">
            <mxPoint x="193" y="439" as="sourcePoint" />
            <mxPoint x="153" y="399" as="targetPoint" />
          </mxGeometry>
        </mxCell>
        <mxCell id="e3MKClEmsMuoy2-H0YjM-53" value="Category" style="ellipse;whiteSpace=wrap;html=1;align=center;" vertex="1" parent="1">
          <mxGeometry x="-27" y="439" width="100" height="40" as="geometry" />
        </mxCell>
        <mxCell id="e3MKClEmsMuoy2-H0YjM-54" value="" style="endArrow=none;html=1;rounded=0;entryX=0;entryY=1;entryDx=0;entryDy=0;" edge="1" parent="1">
          <mxGeometry relative="1" as="geometry">
            <mxPoint x="13" y="439" as="sourcePoint" />
            <mxPoint x="53" y="399" as="targetPoint" />
          </mxGeometry>
        </mxCell>
        <mxCell id="e3MKClEmsMuoy2-H0YjM-55" value="Tour_name" style="ellipse;whiteSpace=wrap;html=1;align=center;" vertex="1" parent="1">
          <mxGeometry x="-37" y="279" width="100" height="40" as="geometry" />
        </mxCell>
        <mxCell id="e3MKClEmsMuoy2-H0YjM-56" value="" style="endArrow=none;html=1;rounded=0;entryX=0;entryY=0;entryDx=0;entryDy=0;" edge="1" parent="1">
          <mxGeometry relative="1" as="geometry">
            <mxPoint x="13" y="319" as="sourcePoint" />
            <mxPoint x="53" y="359" as="targetPoint" />
          </mxGeometry>
        </mxCell>
        <mxCell id="e3MKClEmsMuoy2-H0YjM-57" value="TourID" style="ellipse;whiteSpace=wrap;html=1;align=center;fontStyle=4;" vertex="1" parent="1">
          <mxGeometry x="133" y="279" width="100" height="40" as="geometry" />
        </mxCell>
        <mxCell id="e3MKClEmsMuoy2-H0YjM-59" value="" style="line;strokeWidth=1;rotatable=0;dashed=0;labelPosition=right;align=left;verticalAlign=middle;spacingTop=0;spacingLeft=6;points=[];portConstraint=eastwest;" vertex="1" parent="1">
          <mxGeometry x="-10" y="370" width="50" height="10" as="geometry" />
        </mxCell>
        <mxCell id="e3MKClEmsMuoy2-H0YjM-60" value="Rate" style="ellipse;whiteSpace=wrap;html=1;align=center;" vertex="1" parent="1">
          <mxGeometry x="-110" y="355" width="100" height="40" as="geometry" />
        </mxCell>
        <mxCell id="e3MKClEmsMuoy2-H0YjM-61" value="" style="endArrow=none;html=1;rounded=0;" edge="1" parent="1">
          <mxGeometry relative="1" as="geometry">
            <mxPoint x="-80" y="420" as="sourcePoint" />
            <mxPoint x="40" y="390" as="targetPoint" />
          </mxGeometry>
        </mxCell>
        <mxCell id="e3MKClEmsMuoy2-H0YjM-62" value="Max_Number" style="ellipse;whiteSpace=wrap;html=1;align=center;" vertex="1" parent="1">
          <mxGeometry x="-150" y="420" width="100" height="40" as="geometry" />
        </mxCell>
        <mxCell id="e3MKClEmsMuoy2-H0YjM-63" value="" style="endArrow=none;html=1;rounded=0;" edge="1" parent="1">
          <mxGeometry relative="1" as="geometry">
            <mxPoint x="-80" y="420" as="sourcePoint" />
            <mxPoint x="40" y="390" as="targetPoint" />
          </mxGeometry>
        </mxCell>
        <mxCell id="e3MKClEmsMuoy2-H0YjM-64" value="Date" style="ellipse;whiteSpace=wrap;html=1;align=center;" vertex="1" parent="1">
          <mxGeometry x="-190" y="279" width="100" height="40" as="geometry" />
        </mxCell>
        <mxCell id="e3MKClEmsMuoy2-H0YjM-65" value="" style="endArrow=none;html=1;rounded=0;" edge="1" parent="1">
          <mxGeometry relative="1" as="geometry">
            <mxPoint x="-100" y="309" as="sourcePoint" />
            <mxPoint x="40" y="360" as="targetPoint" />
          </mxGeometry>
        </mxCell>
        <mxCell id="e3MKClEmsMuoy2-H0YjM-66" value="" style="endArrow=none;html=1;rounded=0;entryX=1;entryY=0;entryDx=0;entryDy=0;exitX=0.5;exitY=1;exitDx=0;exitDy=0;" edge="1" parent="1">
          <mxGeometry relative="1" as="geometry">
            <mxPoint x="188" y="641" as="sourcePoint" />
            <mxPoint x="158" y="681" as="targetPoint" />
          </mxGeometry>
        </mxCell>
        <mxCell id="e3MKClEmsMuoy2-H0YjM-67" value="Telephone_Num" style="ellipse;whiteSpace=wrap;html=1;align=center;" vertex="1" parent="1">
          <mxGeometry x="158" y="761" width="100" height="40" as="geometry" />
        </mxCell>
        <mxCell id="e3MKClEmsMuoy2-H0YjM-68" value="" style="endArrow=none;html=1;rounded=0;entryX=1;entryY=1;entryDx=0;entryDy=0;" edge="1" parent="1">
          <mxGeometry relative="1" as="geometry">
            <mxPoint x="198" y="761" as="sourcePoint" />
            <mxPoint x="158" y="721" as="targetPoint" />
          </mxGeometry>
        </mxCell>
        <mxCell id="e3MKClEmsMuoy2-H0YjM-69" value="Address" style="ellipse;whiteSpace=wrap;html=1;align=center;" vertex="1" parent="1">
          <mxGeometry x="-22" y="761" width="100" height="40" as="geometry" />
        </mxCell>
        <mxCell id="e3MKClEmsMuoy2-H0YjM-70" value="" style="endArrow=none;html=1;rounded=0;entryX=0;entryY=1;entryDx=0;entryDy=0;" edge="1" parent="1">
          <mxGeometry relative="1" as="geometry">
            <mxPoint x="18" y="761" as="sourcePoint" />
            <mxPoint x="58" y="721" as="targetPoint" />
          </mxGeometry>
        </mxCell>
        <mxCell id="e3MKClEmsMuoy2-H0YjM-71" value="Name" style="ellipse;whiteSpace=wrap;html=1;align=center;" vertex="1" parent="1">
          <mxGeometry x="-32" y="601" width="100" height="40" as="geometry" />
        </mxCell>
        <mxCell id="e3MKClEmsMuoy2-H0YjM-72" value="" style="endArrow=none;html=1;rounded=0;entryX=0;entryY=0;entryDx=0;entryDy=0;" edge="1" parent="1">
          <mxGeometry relative="1" as="geometry">
            <mxPoint x="18" y="641" as="sourcePoint" />
            <mxPoint x="58" y="681" as="targetPoint" />
          </mxGeometry>
        </mxCell>
        <mxCell id="e3MKClEmsMuoy2-H0YjM-73" value="Employeeid" style="ellipse;whiteSpace=wrap;html=1;align=center;fontStyle=4;" vertex="1" parent="1">
          <mxGeometry x="138" y="601" width="100" height="40" as="geometry" />
        </mxCell>
        <mxCell id="e3MKClEmsMuoy2-H0YjM-75" value="Qualifications" style="ellipse;shape=doubleEllipse;margin=3;whiteSpace=wrap;html=1;align=center;" vertex="1" parent="1">
          <mxGeometry x="-140" y="680" width="100" height="40" as="geometry" />
        </mxCell>
        <mxCell id="e3MKClEmsMuoy2-H0YjM-76" value="" style="endArrow=none;html=1;rounded=0;" edge="1" parent="1">
          <mxGeometry relative="1" as="geometry">
            <mxPoint x="-40" y="700" as="sourcePoint" />
            <mxPoint x="40" y="699.5" as="targetPoint" />
          </mxGeometry>
        </mxCell>
        <mxCell id="e3MKClEmsMuoy2-H0YjM-77" value="m" style="endArrow=none;html=1;rounded=0;" edge="1" parent="1" target="e3MKClEmsMuoy2-H0YjM-78">
          <mxGeometry relative="1" as="geometry">
            <mxPoint x="162" y="377.5" as="sourcePoint" />
            <mxPoint x="242" y="378" as="targetPoint" />
            <Array as="points">
              <mxPoint x="210" y="378" />
            </Array>
          </mxGeometry>
        </mxCell>
        <mxCell id="e3MKClEmsMuoy2-H0YjM-78" value="Rent" style="shape=rhombus;perimeter=rhombusPerimeter;whiteSpace=wrap;html=1;align=center;" vertex="1" parent="1">
          <mxGeometry x="242" y="348" width="120" height="60" as="geometry" />
        </mxCell>
        <mxCell id="e3MKClEmsMuoy2-H0YjM-79" value="1" style="endArrow=none;html=1;rounded=0;" edge="1" parent="1">
          <mxGeometry relative="1" as="geometry">
            <mxPoint x="362" y="377.5" as="sourcePoint" />
            <mxPoint x="442" y="378" as="targetPoint" />
          </mxGeometry>
        </mxCell>
        <mxCell id="e3MKClEmsMuoy2-H0YjM-80" value="Tour_Codinater" style="whiteSpace=wrap;html=1;align=center;" vertex="1" parent="1">
          <mxGeometry x="440" y="360" width="100" height="40" as="geometry" />
        </mxCell>
        <mxCell id="e3MKClEmsMuoy2-H0YjM-81" value="1" style="endArrow=none;html=1;rounded=0;entryX=0.5;entryY=1;entryDx=0;entryDy=0;" edge="1" parent="1">
          <mxGeometry relative="1" as="geometry">
            <mxPoint x="489.5" y="510" as="sourcePoint" />
            <mxPoint x="489.5" y="400" as="targetPoint" />
          </mxGeometry>
        </mxCell>
        <mxCell id="e3MKClEmsMuoy2-H0YjM-82" value="Book" style="shape=rhombus;perimeter=rhombusPerimeter;whiteSpace=wrap;html=1;align=center;" vertex="1" parent="1">
          <mxGeometry x="430" y="510" width="120" height="60" as="geometry" />
        </mxCell>
        <mxCell id="e3MKClEmsMuoy2-H0YjM-83" value="1" style="endArrow=none;html=1;rounded=0;entryX=0.5;entryY=1;entryDx=0;entryDy=0;" edge="1" parent="1">
          <mxGeometry relative="1" as="geometry">
            <mxPoint x="489.5" y="680" as="sourcePoint" />
            <mxPoint x="489.5" y="570" as="targetPoint" />
          </mxGeometry>
        </mxCell>
        <mxCell id="e3MKClEmsMuoy2-H0YjM-84" value="Hotel" style="whiteSpace=wrap;html=1;align=center;" vertex="1" parent="1">
          <mxGeometry x="430" y="680" width="120" height="40" as="geometry" />
        </mxCell>
        <mxCell id="e3MKClEmsMuoy2-H0YjM-85" value="" style="endArrow=none;html=1;rounded=0;entryX=1;entryY=0;entryDx=0;entryDy=0;exitX=0.5;exitY=1;exitDx=0;exitDy=0;" edge="1" parent="1">
          <mxGeometry relative="1" as="geometry">
            <mxPoint x="570" y="320" as="sourcePoint" />
            <mxPoint x="540" y="360" as="targetPoint" />
          </mxGeometry>
        </mxCell>
        <mxCell id="e3MKClEmsMuoy2-H0YjM-87" value="" style="endArrow=none;html=1;rounded=0;entryX=1;entryY=1;entryDx=0;entryDy=0;" edge="1" parent="1">
          <mxGeometry relative="1" as="geometry">
            <mxPoint x="580" y="440" as="sourcePoint" />
            <mxPoint x="540" y="400" as="targetPoint" />
          </mxGeometry>
        </mxCell>
        <mxCell id="e3MKClEmsMuoy2-H0YjM-88" value="Address" style="ellipse;whiteSpace=wrap;html=1;align=center;" vertex="1" parent="1">
          <mxGeometry x="360" y="440" width="100" height="40" as="geometry" />
        </mxCell>
        <mxCell id="e3MKClEmsMuoy2-H0YjM-89" value="" style="endArrow=none;html=1;rounded=0;entryX=0;entryY=1;entryDx=0;entryDy=0;" edge="1" parent="1">
          <mxGeometry relative="1" as="geometry">
            <mxPoint x="400" y="440" as="sourcePoint" />
            <mxPoint x="440" y="400" as="targetPoint" />
          </mxGeometry>
        </mxCell>
        <mxCell id="e3MKClEmsMuoy2-H0YjM-90" value="Name" style="ellipse;whiteSpace=wrap;html=1;align=center;" vertex="1" parent="1">
          <mxGeometry x="350" y="280" width="100" height="40" as="geometry" />
        </mxCell>
        <mxCell id="e3MKClEmsMuoy2-H0YjM-91" value="" style="endArrow=none;html=1;rounded=0;entryX=0;entryY=0;entryDx=0;entryDy=0;" edge="1" parent="1">
          <mxGeometry relative="1" as="geometry">
            <mxPoint x="400" y="320" as="sourcePoint" />
            <mxPoint x="440" y="360" as="targetPoint" />
          </mxGeometry>
        </mxCell>
        <mxCell id="e3MKClEmsMuoy2-H0YjM-92" value="CoordinotorID" style="ellipse;whiteSpace=wrap;html=1;align=center;fontStyle=4;" vertex="1" parent="1">
          <mxGeometry x="520" y="280" width="100" height="40" as="geometry" />
        </mxCell>
        <mxCell id="e3MKClEmsMuoy2-H0YjM-93" value="Telephone_No" style="ellipse;shape=doubleEllipse;margin=3;whiteSpace=wrap;html=1;align=center;" vertex="1" parent="1">
          <mxGeometry x="540" y="440" width="100" height="40" as="geometry" />
        </mxCell>
        <mxCell id="e3MKClEmsMuoy2-H0YjM-94" value="Name" style="ellipse;whiteSpace=wrap;html=1;align=center;" vertex="1" parent="1">
          <mxGeometry x="350" y="280" width="100" height="40" as="geometry" />
        </mxCell>
        <mxCell id="e3MKClEmsMuoy2-H0YjM-95" value="" style="endArrow=none;html=1;rounded=0;entryX=0;entryY=0;entryDx=0;entryDy=0;" edge="1" parent="1">
          <mxGeometry relative="1" as="geometry">
            <mxPoint x="400" y="320" as="sourcePoint" />
            <mxPoint x="440" y="360" as="targetPoint" />
          </mxGeometry>
        </mxCell>
        <mxCell id="e3MKClEmsMuoy2-H0YjM-96" value="" style="endArrow=none;html=1;rounded=0;entryX=0;entryY=1;entryDx=0;entryDy=0;" edge="1" parent="1">
          <mxGeometry relative="1" as="geometry">
            <mxPoint x="400" y="440" as="sourcePoint" />
            <mxPoint x="440" y="400" as="targetPoint" />
          </mxGeometry>
        </mxCell>
        <mxCell id="e3MKClEmsMuoy2-H0YjM-97" value="Address" style="ellipse;whiteSpace=wrap;html=1;align=center;" vertex="1" parent="1">
          <mxGeometry x="360" y="440" width="100" height="40" as="geometry" />
        </mxCell>
        <mxCell id="e3MKClEmsMuoy2-H0YjM-98" value="Telephone_No" style="ellipse;shape=doubleEllipse;margin=3;whiteSpace=wrap;html=1;align=center;" vertex="1" parent="1">
          <mxGeometry x="540" y="440" width="100" height="40" as="geometry" />
        </mxCell>
        <mxCell id="e3MKClEmsMuoy2-H0YjM-99" value="Name" style="ellipse;whiteSpace=wrap;html=1;align=center;" vertex="1" parent="1">
          <mxGeometry x="350" y="280" width="100" height="40" as="geometry" />
        </mxCell>
        <mxCell id="e3MKClEmsMuoy2-H0YjM-100" value="" style="endArrow=none;html=1;rounded=0;entryX=0;entryY=0;entryDx=0;entryDy=0;" edge="1" parent="1">
          <mxGeometry relative="1" as="geometry">
            <mxPoint x="400" y="320" as="sourcePoint" />
            <mxPoint x="440" y="360" as="targetPoint" />
          </mxGeometry>
        </mxCell>
        <mxCell id="e3MKClEmsMuoy2-H0YjM-101" value="" style="endArrow=none;html=1;rounded=0;entryX=0;entryY=1;entryDx=0;entryDy=0;" edge="1" parent="1">
          <mxGeometry relative="1" as="geometry">
            <mxPoint x="400" y="440" as="sourcePoint" />
            <mxPoint x="440" y="400" as="targetPoint" />
          </mxGeometry>
        </mxCell>
        <mxCell id="e3MKClEmsMuoy2-H0YjM-102" value="Address" style="ellipse;whiteSpace=wrap;html=1;align=center;" vertex="1" parent="1">
          <mxGeometry x="360" y="440" width="100" height="40" as="geometry" />
        </mxCell>
        <mxCell id="e3MKClEmsMuoy2-H0YjM-103" value="Telephone_No" style="ellipse;shape=doubleEllipse;margin=3;whiteSpace=wrap;html=1;align=center;" vertex="1" parent="1">
          <mxGeometry x="540" y="440" width="100" height="40" as="geometry" />
        </mxCell>
        <mxCell id="e3MKClEmsMuoy2-H0YjM-104" value="" style="endArrow=none;html=1;rounded=0;entryX=1;entryY=0;entryDx=0;entryDy=0;exitX=0.5;exitY=1;exitDx=0;exitDy=0;" edge="1" parent="1">
          <mxGeometry relative="1" as="geometry">
            <mxPoint x="573" y="640" as="sourcePoint" />
            <mxPoint x="543" y="680" as="targetPoint" />
          </mxGeometry>
        </mxCell>
        <mxCell id="e3MKClEmsMuoy2-H0YjM-105" value="" style="endArrow=none;html=1;rounded=0;entryX=1;entryY=1;entryDx=0;entryDy=0;" edge="1" parent="1">
          <mxGeometry relative="1" as="geometry">
            <mxPoint x="583" y="760" as="sourcePoint" />
            <mxPoint x="543" y="720" as="targetPoint" />
          </mxGeometry>
        </mxCell>
        <mxCell id="e3MKClEmsMuoy2-H0YjM-106" value="Hotel_Number" style="ellipse;whiteSpace=wrap;html=1;align=center;fontStyle=4;" vertex="1" parent="1">
          <mxGeometry x="523" y="600" width="100" height="40" as="geometry" />
        </mxCell>
        <mxCell id="e3MKClEmsMuoy2-H0YjM-107" value="name" style="ellipse;whiteSpace=wrap;html=1;align=center;" vertex="1" parent="1">
          <mxGeometry x="353" y="600" width="100" height="40" as="geometry" />
        </mxCell>
        <mxCell id="e3MKClEmsMuoy2-H0YjM-108" value="" style="endArrow=none;html=1;rounded=0;entryX=0;entryY=0;entryDx=0;entryDy=0;" edge="1" parent="1">
          <mxGeometry relative="1" as="geometry">
            <mxPoint x="403" y="640" as="sourcePoint" />
            <mxPoint x="443" y="680" as="targetPoint" />
          </mxGeometry>
        </mxCell>
        <mxCell id="e3MKClEmsMuoy2-H0YjM-109" value="" style="endArrow=none;html=1;rounded=0;entryX=0;entryY=1;entryDx=0;entryDy=0;" edge="1" parent="1">
          <mxGeometry relative="1" as="geometry">
            <mxPoint x="403" y="760" as="sourcePoint" />
            <mxPoint x="443" y="720" as="targetPoint" />
          </mxGeometry>
        </mxCell>
        <mxCell id="e3MKClEmsMuoy2-H0YjM-110" value="Address" style="ellipse;whiteSpace=wrap;html=1;align=center;" vertex="1" parent="1">
          <mxGeometry x="363" y="760" width="100" height="40" as="geometry" />
        </mxCell>
        <mxCell id="e3MKClEmsMuoy2-H0YjM-111" value="Telephone_No" style="ellipse;shape=doubleEllipse;margin=3;whiteSpace=wrap;html=1;align=center;" vertex="1" parent="1">
          <mxGeometry x="540" y="761" width="100" height="40" as="geometry" />
        </mxCell>
        <mxCell id="e3MKClEmsMuoy2-H0YjM-112" value="Number_Of_Rooms" style="ellipse;whiteSpace=wrap;html=1;align=center;" vertex="1" parent="1">
          <mxGeometry x="240" y="680" width="140" height="40" as="geometry" />
        </mxCell>
        <mxCell id="e3MKClEmsMuoy2-H0YjM-115" value="" style="endArrow=none;html=1;rounded=0;entryX=0;entryY=0.5;entryDx=0;entryDy=0;" edge="1" parent="1" target="e3MKClEmsMuoy2-H0YjM-84">
          <mxGeometry relative="1" as="geometry">
            <mxPoint x="380" y="699.5" as="sourcePoint" />
            <mxPoint x="540" y="699.5" as="targetPoint" />
          </mxGeometry>
        </mxCell>
        <mxCell id="e3MKClEmsMuoy2-H0YjM-116" value="Facillities" style="ellipse;shape=doubleEllipse;margin=3;whiteSpace=wrap;html=1;align=center;" vertex="1" parent="1">
          <mxGeometry x="614" y="680" width="100" height="40" as="geometry" />
        </mxCell>
        <mxCell id="e3MKClEmsMuoy2-H0YjM-117" value="" style="endArrow=none;html=1;rounded=0;" edge="1" parent="1">
          <mxGeometry relative="1" as="geometry">
            <mxPoint x="550" y="699.5" as="sourcePoint" />
            <mxPoint x="620" y="700" as="targetPoint" />
          </mxGeometry>
        </mxCell>
        <mxCell id="e3MKClEmsMuoy2-H0YjM-118" value="Address" style="ellipse;whiteSpace=wrap;html=1;align=center;" vertex="1" parent="1">
          <mxGeometry x="450" y="801" width="100" height="40" as="geometry" />
        </mxCell>
        <mxCell id="e3MKClEmsMuoy2-H0YjM-119" value="" style="endArrow=none;html=1;rounded=0;entryX=0.592;entryY=1.05;entryDx=0;entryDy=0;entryPerimeter=0;exitX=0.5;exitY=0;exitDx=0;exitDy=0;" edge="1" parent="1" source="e3MKClEmsMuoy2-H0YjM-118" target="e3MKClEmsMuoy2-H0YjM-84">
          <mxGeometry relative="1" as="geometry">
            <mxPoint x="350" y="760" as="sourcePoint" />
            <mxPoint x="510" y="760" as="targetPoint" />
          </mxGeometry>
        </mxCell>
      </root>
    </mxGraphModel>
  </diagram>
</mxfile>
